<?xml version="1.0" encoding="UTF-8" standalone="no"?>
<svg
   xmlns:dc="http://purl.org/dc/elements/1.1/"
   xmlns:cc="http://creativecommons.org/ns#"
   xmlns:rdf="http://www.w3.org/1999/02/22-rdf-syntax-ns#"
   xmlns:svg="http://www.w3.org/2000/svg"
   xmlns="http://www.w3.org/2000/svg"
   xmlns:sodipodi="http://sodipodi.sourceforge.net/DTD/sodipodi-0.dtd"
   xmlns:inkscape="http://www.inkscape.org/namespaces/inkscape"
   width="210mm"
   height="210mm"
   viewBox="0 0 210 210"
   version="1.1"
   id="svg8"
   inkscape:version="1.0.2 (e86c8708, 2021-01-15)"
   sodipodi:docname="brewlog-logo.svg">
  <defs
     id="defs2" />
  <sodipodi:namedview
     id="base"
     pagecolor="#ffffff"
     bordercolor="#666666"
     borderopacity="1.0"
     inkscape:pageopacity="0.0"
     inkscape:pageshadow="2"
     inkscape:zoom="0.44785584"
     inkscape:cx="234.72698"
     inkscape:cy="617.02768"
     inkscape:document-units="mm"
     inkscape:current-layer="layer1"
     inkscape:document-rotation="0"
     showgrid="false"
     inkscape:window-width="1252"
     inkscape:window-height="807"
     inkscape:window-x="0"
     inkscape:window-y="23"
     inkscape:window-maximized="0"
     showguides="true"
     inkscape:guide-bbox="true" />
  <metadata
     id="metadata5">
    <rdf:RDF>
      <cc:Work
         rdf:about="">
        <dc:format>image/svg+xml</dc:format>
        <dc:type
           rdf:resource="http://purl.org/dc/dcmitype/StillImage" />
        <dc:title></dc:title>
      </cc:Work>
    </rdf:RDF>
  </metadata>
  <g
     inkscape:label="Layer 1"
     inkscape:groupmode="layer"
     id="layer1">
    <path
       id="path848"
       style="fill:#ffd42a;fill-opacity:1;fill-rule:evenodd;stroke:none;stroke-width:2;stroke-linejoin:round;stroke-miterlimit:4;stroke-dasharray:none;stroke-opacity:1"
       d="M 51.026862,45.281462 V 188.91238 H 116.7944 c 42.33333,-42.33333 0,0 42.33333,-42.33333 V 45.281462 Z"
       sodipodi:nodetypes="cccccc" />
    <path
       id="rect10"
       style="fill:none;fill-opacity:1;fill-rule:evenodd;stroke:#000000;stroke-width:2;stroke-linejoin:round;stroke-miterlimit:4;stroke-dasharray:none;stroke-opacity:1"
       d="M 51.026857,45.281462 V 188.91238 H 116.7944 v -42.33333 h 42.33333 V 45.281462 Z" />
    <rect
       style="fill:#ffffff;fill-opacity:1;stroke:none;stroke-width:1.63518;stroke-linejoin:round;stroke-miterlimit:4;stroke-dasharray:none;stroke-opacity:1"
       id="rect850"
       width="108.85706"
       height="16.675611"
       x="51.026855"
       y="45.281487" />
    <path
       id="path846"
       style="fill:none;fill-opacity:1;fill-rule:evenodd;stroke:#000000;stroke-width:2;stroke-linejoin:round;stroke-miterlimit:4;stroke-dasharray:none;stroke-opacity:1"
       d="M 51.026857,45.281462 V 188.91238 H 116.7944 c 42.33333,-42.33333 0,0 42.33333,-42.33333 V 45.281462 Z"
       sodipodi:nodetypes="cccccc" />
    <path
       id="path870"
       style="fill:#ffffff;fill-opacity:1;stroke:#000000;stroke-width:2.08066;stroke-linejoin:round;stroke-miterlimit:4;stroke-dasharray:none;stroke-opacity:1"
       d="M 106.77278,20.005011 A 27.970236,23.812499 0 0 0 87.193117,26.829917 12.473214,24.56845 0 0 0 79.956866,22.273091 12.473214,24.56845 0 0 0 69.911484,32.277648 15.58353,13.156809 0 0 0 67.541603,32.124685 15.58353,13.156809 0 0 0 51.95806,45.281452 h 106.6405 a 18.424112,15.92228 0 0 0 5.2e-4,-0.0599 18.424112,15.92228 0 0 0 -18.4242,-15.921977 18.424112,15.92228 0 0 0 -9.41803,2.237589 27.970236,23.812499 0 0 0 -23.96391,-11.532113 27.970236,23.812499 0 0 0 -0.0202,0 z" />
    <path
       style="fill:none;stroke:#000000;stroke-width:2;stroke-linecap:butt;stroke-linejoin:miter;stroke-miterlimit:4;stroke-dasharray:none;stroke-opacity:1"
       d="m 71.97198,78.348743 h 65.0235"
       id="path891" />
    <path
       style="fill:none;stroke:#000000;stroke-width:2;stroke-linecap:butt;stroke-linejoin:miter;stroke-miterlimit:4;stroke-dasharray:none;stroke-opacity:1"
       d="m 71.97198,91.078861 h 65.0235"
       id="path893" />
    <path
       style="fill:none;stroke:#000000;stroke-width:2;stroke-linecap:butt;stroke-linejoin:miter;stroke-miterlimit:4;stroke-dasharray:none;stroke-opacity:1"
       d="m 71.97198,103.96474 h 65.0235"
       id="path895" />
    <path
       style="fill:none;stroke:#000000;stroke-width:2;stroke-linecap:butt;stroke-linejoin:miter;stroke-miterlimit:4;stroke-dasharray:none;stroke-opacity:1"
       d="m 71.97198,116.58106 h 29.2467"
       id="path897" />
    <path
       style="fill:none;stroke:#000000;stroke-width:2;stroke-linecap:butt;stroke-linejoin:miter;stroke-miterlimit:4;stroke-dasharray:none;stroke-opacity:1"
       d="m 71.97198,129.99616 h 65.0235"
       id="path899" />
    <path
       style="fill:none;stroke:#000000;stroke-width:2;stroke-linecap:butt;stroke-linejoin:miter;stroke-miterlimit:4;stroke-dasharray:none;stroke-opacity:1"
       d="m 71.97198,144.26194 h 29.2467"
       id="path901" />
  </g>
</svg>
